# xmcd
#
# Track frame offsets: 
#        150
#        18509
#        42042
#        63514
#        88057
#        104899
#        125947
#        145536
#        166072
#        184128
#
# Disc length: 2702 seconds
#
# Revision: 1
# Processed by: cddbd v1.5.2PL0 Copyright (c) Steve Scherf et al.
# Submitted via: ExactAudioCopyFreeDBPlugin 1.0
#
DISCID=8b0a8c0a
DTITLE=Floyd Miles - Another Man Will
DYEAR=2001
DGENRE=Rhythm and Blues
TTITLE0=You Must Be Crazy
TTITLE1=Another Man Will
TTITLE2=Three Old Blues Men
TTITLE3=I Don't Want You No More
TTITLE4=Rabbit's Got the Gun
TTITLE5=What Would I Do
TTITLE6=I'm Sorry
TTITLE7=Heartaches and Misery
TTITLE8=Feeling So Bad
TTITLE9=It's Been a Long Time
EXTD=
EXTT0=
EXTT1=
EXTT2=
EXTT3=
EXTT4=
EXTT5=
EXTT6=
EXTT7=
EXTT8=
EXTT9=
PLAYORDER=
